# xmcd
#
# Track frame offsets: 
#        150
#        14088
#        27168
#        43635
#        61003
#        75483
#        93439
#        131308
#        144765
#        161768
#        173304
#
# Disc length: 2505 seconds
#
# Revision: 2
# Processed by: cddbd v1.5.2PL0 Copyright (c) Steve Scherf et al.
# Submitted via: ExactAudioCopy v0.95b4
#
DISCID=7809c70b
DTITLE=America - Hat Trick
DYEAR=1973
DGENRE=
TTITLE0=Muskrat love
TTITLE1=Wind Wave
TTITLE2=She's gonna let you down
TTITLE3=Rainbow song
TTITLE4=Submarine ladies
TTITLE5=It's life
TTITLE6=Hat trick
TTITLE7=Molten love
TTITLE8=Green monkey
TTITLE9=Willow tree lullaby
TTITLE10=Goodbye
EXTD=Version japonesa
EXTT0=
EXTT1=
EXTT2=
EXTT3=
EXTT4=
EXTT5=
EXTT6=
EXTT7=
EXTT8=
EXTT9=
EXTT10=
PLAYORDER=
